<svg width="19" height="21" viewBox="0 0 19 21" fill="none" xmlns="http://www.w3.org/2000/svg">
<path d="M12.8622 3.71385C15.7427 5.00093 17.75 7.891 17.75 11.2499C17.75 15.8062 14.0563 19.4999 9.5 19.4999C4.94365 19.4999 1.25 15.8062 1.25 11.2499C1.25 9.03785 2.12058 7.02914 3.53781 5.5477C4.3043 6.61811 5.32048 7.49755 6.50121 8.10089C6.54632 5.32521 7.84797 2.85503 9.86211 1.23438C10.6255 2.25813 11.6379 3.11845 12.8622 3.71385Z" stroke="#BEBEBE" stroke-width="1.5" stroke-linecap="round" stroke-linejoin="round"/>
<path d="M9.5 16.5003C11.5711 16.5003 13.25 14.8214 13.25 12.7503C13.25 10.847 11.8321 9.27486 9.99489 9.03265C8.98657 9.9372 8.28619 11.1781 8.07031 12.5789C7.28769 12.3876 6.56529 12.0428 5.93682 11.5782C5.81559 11.9469 5.75 12.341 5.75 12.7503C5.75 14.8214 7.42893 16.5003 9.5 16.5003Z" stroke="#BEBEBE" stroke-width="1.5" stroke-linecap="round" stroke-linejoin="round"/>
</svg>
