<svg width="19" height="19" viewBox="0 0 19 19" fill="none" xmlns="http://www.w3.org/2000/svg">
<path d="M1.25 2.375C1.25 1.75368 1.75368 1.25 2.375 1.25H6.875C7.49632 1.25 8 1.75368 8 2.375V6.875C8 7.49632 7.49632 8 6.875 8H2.375C1.75368 8 1.25 7.49632 1.25 6.875V2.375Z" stroke="#BEBEBE" stroke-width="1.5" stroke-linecap="round" stroke-linejoin="round"/>
<path d="M1.25 12.125C1.25 11.5037 1.75368 11 2.375 11H6.875C7.49632 11 8 11.5037 8 12.125V16.625C8 17.2463 7.49632 17.75 6.875 17.75H2.375C1.75368 17.75 1.25 17.2463 1.25 16.625V12.125Z" stroke="#BEBEBE" stroke-width="1.5" stroke-linecap="round" stroke-linejoin="round"/>
<path d="M11 2.375C11 1.75368 11.5037 1.25 12.125 1.25H16.625C17.2463 1.25 17.75 1.75368 17.75 2.375V6.875C17.75 7.49632 17.2463 8 16.625 8H12.125C11.5037 8 11 7.49632 11 6.875V2.375Z" stroke="#BEBEBE" stroke-width="1.5" stroke-linecap="round" stroke-linejoin="round"/>
<path d="M4.25 4.25H5V5H4.25V4.25Z" stroke="#BEBEBE" stroke-width="1.5" stroke-linecap="round" stroke-linejoin="round"/>
<path d="M4.25 14H5V14.75H4.25V14Z" stroke="#BEBEBE" stroke-width="1.5" stroke-linecap="round" stroke-linejoin="round"/>
<path d="M14 4.25H14.75V5H14V4.25Z" stroke="#BEBEBE" stroke-width="1.5" stroke-linecap="round" stroke-linejoin="round"/>
<path d="M11 11H11.75V11.75H11V11Z" stroke="#BEBEBE" stroke-width="1.5" stroke-linecap="round" stroke-linejoin="round"/>
<path d="M11 17H11.75V17.75H11V17Z" stroke="#BEBEBE" stroke-width="1.5" stroke-linecap="round" stroke-linejoin="round"/>
<path d="M17 11H17.75V11.75H17V11Z" stroke="#BEBEBE" stroke-width="1.5" stroke-linecap="round" stroke-linejoin="round"/>
<path d="M17 17H17.75V17.75H17V17Z" stroke="#BEBEBE" stroke-width="1.5" stroke-linecap="round" stroke-linejoin="round"/>
<path d="M14 14H14.75V14.75H14V14Z" stroke="#BEBEBE" stroke-width="1.5" stroke-linecap="round" stroke-linejoin="round"/>
</svg>
