<svg width="27" height="24" viewBox="0 0 27 24" fill="none" xmlns="http://www.w3.org/2000/svg">
<path d="M4.94653 4.875C4.94653 4.25368 5.49507 3.75 6.17172 3.75H11.0725C11.7491 3.75 12.2977 4.25368 12.2977 4.875V9.375C12.2977 9.99632 11.7491 10.5 11.0725 10.5H6.17172C5.49507 10.5 4.94653 9.99632 4.94653 9.375V4.875Z" stroke="#111111" stroke-width="1.5" stroke-linecap="round" stroke-linejoin="round"/>
<path d="M4.94653 14.625C4.94653 14.0037 5.49507 13.5 6.17172 13.5H11.0725C11.7491 13.5 12.2977 14.0037 12.2977 14.625V19.125C12.2977 19.7463 11.7491 20.25 11.0725 20.25H6.17172C5.49507 20.25 4.94653 19.7463 4.94653 19.125V14.625Z" stroke="#111111" stroke-width="1.5" stroke-linecap="round" stroke-linejoin="round"/>
<path d="M15.5649 4.875C15.5649 4.25368 16.1134 3.75 16.79 3.75H21.6908C22.3675 3.75 22.916 4.25368 22.916 4.875V9.375C22.916 9.99632 22.3675 10.5 21.6908 10.5H16.79C16.1134 10.5 15.5649 9.99632 15.5649 9.375V4.875Z" stroke="#111111" stroke-width="1.5" stroke-linecap="round" stroke-linejoin="round"/>
<path d="M8.21371 6.75H9.0305V7.5H8.21371V6.75Z" stroke="#111111" stroke-width="1.5" stroke-linecap="round" stroke-linejoin="round"/>
<path d="M8.21371 16.5H9.0305V17.25H8.21371V16.5Z" stroke="#111111" stroke-width="1.5" stroke-linecap="round" stroke-linejoin="round"/>
<path d="M18.832 6.75H19.6488V7.5H18.832V6.75Z" stroke="#111111" stroke-width="1.5" stroke-linecap="round" stroke-linejoin="round"/>
<path d="M15.5649 13.5H16.3816V14.25H15.5649V13.5Z" stroke="#111111" stroke-width="1.5" stroke-linecap="round" stroke-linejoin="round"/>
<path d="M15.5649 19.5H16.3816V20.25H15.5649V19.5Z" stroke="#111111" stroke-width="1.5" stroke-linecap="round" stroke-linejoin="round"/>
<path d="M22.0992 13.5H22.916V14.25H22.0992V13.5Z" stroke="#111111" stroke-width="1.5" stroke-linecap="round" stroke-linejoin="round"/>
<path d="M22.0992 19.5H22.916V20.25H22.0992V19.5Z" stroke="#111111" stroke-width="1.5" stroke-linecap="round" stroke-linejoin="round"/>
<path d="M18.832 16.5H19.6488V17.25H18.832V16.5Z" stroke="#111111" stroke-width="1.5" stroke-linecap="round" stroke-linejoin="round"/>
</svg>
