<svg width="19" height="21" viewBox="0 0 19 21" fill="none" xmlns="http://www.w3.org/2000/svg">
<path d="M7.09353 2.44005C7.18394 1.89759 7.65328 1.5 8.20322 1.5H10.7972C11.3471 1.5 11.8165 1.89759 11.9069 2.44005L12.1204 3.7211C12.1827 4.09514 12.4327 4.40671 12.7645 4.59036C12.8386 4.63142 12.912 4.67383 12.9844 4.71757C13.3094 4.91384 13.7048 4.97486 14.0603 4.84166L15.2772 4.38578C15.7922 4.19284 16.3712 4.40051 16.6461 4.87677L17.9431 7.12321C18.2181 7.59948 18.1084 8.20473 17.6839 8.55426L16.6795 9.38108C16.387 9.62188 16.242 9.99372 16.249 10.3725C16.2498 10.4149 16.2502 10.4574 16.2502 10.5C16.2502 10.5426 16.2498 10.5851 16.249 10.6275C16.242 11.0063 16.387 11.3781 16.6795 11.6189L17.6839 12.4457C18.1084 12.7953 18.2181 13.4005 17.9431 13.8768L16.6461 16.1232C16.3712 16.5995 15.7922 16.8071 15.2772 16.6142L14.0603 16.1583C13.7048 16.0251 13.3094 16.0862 12.9844 16.2824C12.912 16.3262 12.8386 16.3686 12.7645 16.4096C12.4327 16.5933 12.1827 16.9049 12.1204 17.2789L11.9069 18.5599C11.8165 19.1024 11.3471 19.5 10.7972 19.5H8.20322C7.65328 19.5 7.18394 19.1024 7.09353 18.5599L6.88002 17.2789C6.81768 16.9049 6.56771 16.5933 6.23594 16.4096C6.16176 16.3686 6.08844 16.3262 6.01601 16.2824C5.69098 16.0862 5.29565 16.0251 4.94008 16.1583L3.72322 16.6142C3.20822 16.8072 2.62923 16.5995 2.35426 16.1232L1.05728 13.8768C0.782306 13.4005 0.89196 12.7953 1.31654 12.4457L2.32089 11.6189C2.6134 11.3781 2.7584 11.0063 2.75138 10.6275C2.7506 10.5851 2.7502 10.5426 2.7502 10.5C2.7502 10.4574 2.7506 10.4149 2.75138 10.3725C2.7584 9.99373 2.6134 9.62189 2.32089 9.38109L1.31654 8.55427C0.891959 8.20475 0.782306 7.59949 1.05728 7.12323L2.35426 4.87679C2.62923 4.40052 3.20822 4.19286 3.72321 4.38579L4.94007 4.84167C5.29563 4.97487 5.69096 4.91385 6.016 4.71758C6.08843 4.67384 6.16176 4.63142 6.23594 4.59036C6.56771 4.40671 6.81768 4.09514 6.88002 3.7211L7.09353 2.44005Z" stroke="#BEBEBE" stroke-width="1.5" stroke-linecap="round" stroke-linejoin="round"/>
<path d="M12.5 10.4999C12.5 12.1568 11.1568 13.4999 9.49997 13.4999C7.84312 13.4999 6.49997 12.1568 6.49997 10.4999C6.49997 8.84307 7.84312 7.49992 9.49997 7.49992C11.1568 7.49992 12.5 8.84307 12.5 10.4999Z" stroke="#BEBEBE" stroke-width="1.5" stroke-linecap="round" stroke-linejoin="round"/>
</svg>
