<svg width="21" height="19" viewBox="0 0 21 19" fill="none" xmlns="http://www.w3.org/2000/svg">
<path d="M19.5 9.5C19.5 8.25736 18.4926 7.25 17.25 7.25H13.5C13.5 8.90685 12.1569 10.25 10.5 10.25C8.84315 10.25 7.5 8.90685 7.5 7.25H3.75C2.50736 7.25 1.5 8.25736 1.5 9.5M19.5 9.5V15.5C19.5 16.7426 18.4926 17.75 17.25 17.75H3.75C2.50736 17.75 1.5 16.7426 1.5 15.5V9.5M19.5 9.5V6.5M1.5 9.5V6.5M19.5 6.5C19.5 5.25736 18.4926 4.25 17.25 4.25H3.75C2.50736 4.25 1.5 5.25736 1.5 6.5M19.5 6.5V3.5C19.5 2.25736 18.4926 1.25 17.25 1.25H3.75C2.50736 1.25 1.5 2.25736 1.5 3.5V6.5" stroke="#BEBEBE" stroke-width="1.5" stroke-linecap="round" stroke-linejoin="round"/>
</svg>
