<svg width="164" height="164" viewBox="0 0 164 164" fill="none" xmlns="http://www.w3.org/2000/svg">
<path fill-rule="evenodd" clip-rule="evenodd" d="M163.677 61.7345V34.5064C163.677 18.7842 152.018 5.9707 137.713 5.9707H26.2919C11.979 6.11388 0.320312 18.9273 0.320312 34.5064V61.7342C0.320312 64.4998 2.31009 66.6869 4.82679 66.6869H159.178C161.694 66.6869 163.677 64.4998 163.677 61.7342V61.7345Z" fill="#34A853"/>
<path fill-rule="evenodd" clip-rule="evenodd" d="M163.677 85.6183V58.5333C163.677 42.8037 152.018 29.9902 137.713 29.9902H26.2919C11.979 29.9902 0.320312 42.8037 0.320312 58.5333V85.7611C0.320312 88.5267 2.31009 90.7138 4.82679 90.7138H159.178C161.694 90.5632 163.677 88.3838 163.677 85.6183Z" fill="#FBBC04"/>
<path fill-rule="evenodd" clip-rule="evenodd" d="M163.677 109.646V82.4181C163.677 66.6888 152.018 53.875 137.713 53.875H26.2919C11.979 53.875 0.320312 66.6888 0.320312 82.4181V109.646C0.320312 112.412 2.31009 114.591 4.82679 114.591H159.178C161.694 114.448 163.677 112.262 163.677 109.646Z" fill="#EA4335"/>
<path fill-rule="evenodd" clip-rule="evenodd" d="M104.192 96.5391L0.320312 70.0397V130.027C0.320312 145.756 11.9794 158.57 26.2916 158.57H137.713C152.018 158.57 163.677 145.756 163.677 130.027V68.875L138.903 88.6777C128.837 96.6816 116.247 99.5975 104.192 96.5388V96.5391Z" fill="#4285F4"/>
</svg>
