<svg width="40" height="16" viewBox="0 0 40 16" fill="none" xmlns="http://www.w3.org/2000/svg">
<g clip-path="url(#clip0_2926_155)">
<path d="M13.4844 2.96029C15.2464 2.86374 16.6235 3.74955 17.6927 5.19791C18.1931 5.86961 18.0947 6.50354 17.3677 6.92335C16.1445 7.63284 14.9 8.30454 13.6469 8.95945C13.0867 9.25332 12.3767 9.02243 12.1244 8.52704C11.8251 7.9477 12.0389 7.2634 12.6248 6.94854C13.3005 6.5833 13.9762 6.22226 14.6477 5.86122C14.7375 5.81084 14.8658 5.78985 14.8487 5.65551C14.8359 5.53376 14.7247 5.49178 14.6306 5.4498C13.818 5.08036 13.0054 5.09715 12.2057 5.47499C11.0082 6.04174 10.4223 7.17104 10.6147 8.47247C10.7773 9.55979 11.778 10.517 12.984 10.7101C14.1687 10.899 15.0882 10.4414 15.7639 9.50941C16.0718 9.0854 16.4396 8.8629 16.9742 8.92167C17.6585 8.99724 18.1204 9.66474 17.9365 10.3197C17.868 10.5631 17.7526 10.7815 17.5986 10.9788C15.8195 13.1954 13.0225 13.548 10.897 12.3768C9.21199 11.449 8.33954 10.0006 8.23262 8.15341C8.13426 6.44476 8.92117 5.08036 10.2598 4.02243C11.1536 3.31294 12.1757 2.91411 13.4801 2.96449L13.4844 2.96029Z" fill="#0061FF"/>
<path d="M29.5007 8.03473C29.4922 10.8685 27.2384 12.9928 24.2832 13.0137C21.7 13.0305 19.1426 10.7257 19.1896 7.93398C19.2366 5.27235 21.5717 2.90459 24.2276 2.90039C27.2041 2.90039 29.5093 5.1422 29.5007 8.03473ZM27.1699 7.98435C27.1785 6.43524 25.9297 5.19678 24.3559 5.18419C22.8505 5.17159 21.5375 6.45623 21.529 7.94657C21.5161 9.43691 22.8077 10.7132 24.3388 10.7257C25.8869 10.7341 27.1657 9.49989 27.1699 7.98855V7.98435Z" fill="#0061FF"/>
<path d="M-2.9457e-05 6.72689C-2.9457e-05 5.07282 -0.00430616 3.41875 0.00424725 1.76467C0.0128007 0.836881 0.718457 0.307914 1.56524 0.568199C1.95015 0.685748 2.20247 0.929241 2.30084 1.31967C2.37354 1.61354 2.40348 1.90741 2.40348 2.20968C2.40348 3.55309 2.40348 4.8923 2.40348 6.23571C2.40348 6.72269 2.41203 6.75208 2.92096 6.71849C3.33152 6.69331 3.63089 6.82345 3.89605 7.12571C4.65302 7.99893 5.3544 8.91413 6.07289 9.81673C7.03515 11.0258 8.00168 12.2349 8.96822 13.4439C9.24193 13.784 9.40444 14.1576 9.27614 14.6026C9.02382 15.501 7.99741 15.8033 7.33879 15.1358C6.8427 14.632 6.4193 14.0569 5.97452 13.5069C4.93956 12.2181 3.90888 10.9292 2.87392 9.63621C2.81832 9.56484 2.75844 9.49347 2.69429 9.4263C2.64297 9.36753 2.5831 9.28776 2.50184 9.31295C2.39065 9.34654 2.40775 9.45989 2.40775 9.54805C2.40775 10.1988 2.40775 10.8495 2.40348 11.5002C2.40348 11.6933 2.39492 11.8906 2.35216 12.0837C2.21958 12.7051 1.8304 13.0115 1.21028 13.0073C0.594432 12.9989 0.153932 12.6421 0.051291 12.0376C0.0128006 11.8067 0.00424725 11.5716 0.00424725 11.3365C0.00424725 9.79994 0.00424725 8.26341 0.00424725 6.72689H-2.9457e-05Z" fill="#0061FF"/>
<path d="M35.1332 9.09863C34.697 9.09863 34.2565 9.07344 33.8202 9.10282C32.2763 9.19938 30.8052 7.49493 30.7795 6.13053C30.7496 4.56042 32.255 2.73003 34.1624 2.90635C34.6371 2.94833 35.1203 2.90635 35.5908 2.95253C36.1767 3.0155 36.553 3.44791 36.5744 4.00207C36.5915 4.51005 36.2195 4.97604 35.6849 5.11038C35.2401 5.22373 34.7868 5.17335 34.3377 5.18595C34.1666 5.18595 33.9913 5.17755 33.8202 5.20274C33.4139 5.26151 33.1188 5.57218 33.0889 5.96261C33.059 6.31105 33.3156 6.68049 33.6748 6.80643C33.863 6.87361 34.064 6.8862 34.265 6.8862C35.099 6.8862 35.9372 6.87361 36.7712 6.8862C38.1269 6.91139 39.149 7.47814 39.7007 8.72499C40.2353 9.92986 40.0599 11.0466 39.1575 12.0247C38.6016 12.6293 37.8916 12.9693 37.062 13.0113C36.5317 13.0365 36.0013 13.0239 35.471 13.0113C34.7825 12.9987 34.3292 12.5327 34.3334 11.8652C34.3334 11.2439 34.7739 10.8241 35.4625 10.7989C35.8859 10.7821 36.3135 10.8157 36.7369 10.7821C37.5239 10.7233 37.9173 10.0558 37.5238 9.47646C37.3357 9.19518 37.0449 9.11542 36.7284 9.10702C36.1981 9.09863 35.6678 9.10702 35.1375 9.10702L35.1332 9.09863Z" fill="#0061FF"/>
<path d="M3.73784 5.5088C3.72074 5.30309 3.79772 5.10157 3.92174 4.90846C4.40073 4.17378 4.87545 3.43911 5.41431 2.75061C5.86336 2.17546 6.52625 2.04112 7.05229 2.40636C7.59543 2.78 7.70662 3.4601 7.32172 4.06463C6.84273 4.8119 6.35091 5.55498 5.78638 6.24347C5.44852 6.65489 4.9567 6.77244 4.46488 6.59612C4.01583 6.43659 3.7464 6.04196 3.74212 5.5088H3.73784Z" fill="#0061FF"/>
<path d="M37.682 4.93756C37.6906 4.33723 38.2251 3.85864 38.8752 3.87543C39.5081 3.89222 39.9957 4.4002 39.9743 5.02992C39.9572 5.57988 39.4055 6.11304 38.8538 6.10885C38.1738 6.10885 37.6692 5.60507 37.6777 4.93756H37.682Z" fill="#0061FF"/>
<path d="M31.9512 11.9906C31.2926 11.9906 30.8264 11.5372 30.8222 10.8948C30.8179 10.3239 31.3525 9.79492 31.9298 9.79492C32.5414 9.79492 33.0632 10.3113 33.0717 10.9158C33.076 11.5078 32.5756 11.9948 31.9555 11.9906H31.9512Z" fill="#0061FF"/>
</g>
<defs>
<clipPath id="clip0_2926_155">
<rect width="40" height="15" fill="white" transform="translate(0 0.5)"/>
</clipPath>
</defs>
</svg>
